<?xml version="1.0" encoding="UTF-8"?>
<svg version="1.1" xmlns="http://www.w3.org/2000/svg" width="305" height="293">
<path d="M0 0 C100.65 0 201.3 0 305 0 C305 96.69 305 193.38 305 293 C204.35 293 103.7 293 0 293 C0 196.31 0 99.62 0 0 Z " fill="#FBFAF4" transform="translate(0,0)"/>
<path d="M0 0 C7.81896239 4.5691056 14.59692595 10.68272679 17.4375 19.5 C17.98488738 22.49893426 18.29657616 25.45604505 18.4375 28.5 C21.36950474 25.64723863 24.08065404 22.84920216 26.4375 19.5 C24.1275 20.16 21.8175 20.82 19.4375 21.5 C23.82918507 16.22997792 28.3801379 11.14697949 33.4375 6.5 C33.7675 6.5 34.0975 6.5 34.4375 6.5 C34.4375 13.1 34.4375 19.7 34.4375 26.5 C32.4375 24.5 30.4375 22.5 28.4375 20.5 C28.18097656 21.09425781 27.92445313 21.68851563 27.66015625 22.30078125 C18.0977948 43.0031328 -1.24398267 56.28408472 -22.125 64 C-32.34980759 67.53346137 -44.19401438 69.54305729 -54.5625 65.5 C-59.02270992 63.10470208 -61.30903589 61.00052634 -63.5625 56.5 C-64.843125 49.50296197 -64.21444971 43.66421403 -60.5 37.5625 C-58.20815664 34.33625397 -55.95037258 31.83272043 -52.8125 29.4375 C-49.04443629 26.53834677 -48.46544469 23.5239001 -47.36328125 19.02734375 C-44.72886339 10.71286398 -36.82503195 3.7982332 -29.5625 -0.5 C-20.40070858 -4.19405564 -8.97033003 -4.2051993 0 0 Z " fill="#204F9C" transform="translate(169.5625,65.5)"/>
<path d="M0 0 C2.375 0.3125 2.375 0.3125 4.1875 2.1875 C5.375 4.3125 5.375 4.3125 5.375 6.3125 C1.415 6.3125 -2.545 6.3125 -6.625 6.3125 C-6.625 6.9725 -6.625 7.6325 -6.625 8.3125 C-2.335 8.3125 1.955 8.3125 6.375 8.3125 C6.87 9.3025 6.87 9.3025 7.375 10.3125 C8.035 9.6525 8.695 8.9925 9.375 8.3125 C12.51691424 9.84854696 15.46096738 11.36981159 18.375 13.3125 C19.014375 13.580625 19.65375 13.84875 20.3125 14.125 C23.07475748 15.71539067 24.56066856 17.72059795 26.375 20.3125 C26.375 20.9725 26.375 21.6325 26.375 22.3125 C25.715 22.3125 25.055 22.3125 24.375 22.3125 C24.375 22.9725 24.375 23.6325 24.375 24.3125 C25.035 24.3125 25.695 24.3125 26.375 24.3125 C26.375 24.9725 26.375 25.6325 26.375 26.3125 C25.735625 26.415625 25.09625 26.51875 24.4375 26.625 C23.756875 26.851875 23.07625 27.07875 22.375 27.3125 C21.88 28.7975 21.88 28.7975 21.375 30.3125 C20.715 30.3125 20.055 30.3125 19.375 30.3125 C19.375 29.6525 19.375 28.9925 19.375 28.3125 C16.405 28.3125 13.435 28.3125 10.375 28.3125 C10.375 30.6225 10.375 32.9325 10.375 35.3125 C12.85 34.8175 12.85 34.8175 15.375 34.3125 C14.715 35.3025 14.055 36.2925 13.375 37.3125 C12.055 37.3125 10.735 37.3125 9.375 37.3125 C9.045 38.6325 8.715 39.9525 8.375 41.3125 C7.88 39.3325 7.88 39.3325 7.375 37.3125 C2.425 37.3125 -2.525 37.3125 -7.625 37.3125 C-7.625 36.9825 -7.625 36.6525 -7.625 36.3125 C0.295 35.8175 0.295 35.8175 8.375 35.3125 C8.375 33.0025 8.375 30.6925 8.375 28.3125 C2.435 28.3125 -3.505 28.3125 -9.625 28.3125 C-9.955 30.6225 -10.285 32.9325 -10.625 35.3125 C-12.605 35.3125 -14.585 35.3125 -16.625 35.3125 C-15.1709375 35.745625 -15.1709375 35.745625 -13.6875 36.1875 C-10.625 37.3125 -10.625 37.3125 -9.625 39.3125 C-9.585008 41.31210012 -9.58153201 43.31297242 -9.625 45.3125 C-14.375 44.4375 -14.375 44.4375 -16.625 43.3125 C-17.67852843 41.00284152 -18.68219096 38.6695226 -19.625 36.3125 C-20.285 37.3025 -20.945 38.2925 -21.625 39.3125 C-23.00062854 38.02284824 -24.33266393 36.68560707 -25.625 35.3125 C-25.625 34.6525 -25.625 33.9925 -25.625 33.3125 C-24.635 33.3125 -23.645 33.3125 -22.625 33.3125 C-22.625 32.6525 -22.625 31.9925 -22.625 31.3125 C-23.945 30.6525 -25.265 29.9925 -26.625 29.3125 C-26.625 28.9825 -26.625 28.6525 -26.625 28.3125 C-21.675 28.3125 -16.725 28.3125 -11.625 28.3125 C-11.625 27.6525 -11.625 26.9925 -11.625 26.3125 C-16.575 26.3125 -21.525 26.3125 -26.625 26.3125 C-26.625 19.53215318 -26.625 19.53215318 -24.25 16.9375 C-23.38375 16.07125 -22.5175 15.205 -21.625 14.3125 C-20.965 14.3125 -20.305 14.3125 -19.625 14.3125 C-19.625 14.9725 -19.625 15.6325 -19.625 16.3125 C-18.965 16.3125 -18.305 16.3125 -17.625 16.3125 C-17.58375 15.549375 -17.5425 14.78625 -17.5 14 C-16.625 11.3125 -16.625 11.3125 -13.5625 9.5 C-12.593125 9.108125 -11.62375 8.71625 -10.625 8.3125 C-11.615 7.6525 -12.605 6.9925 -13.625 6.3125 C-8.92890537 2.05325138 -6.28276246 0.74794791 0 0 Z " fill="#1B4C9B" transform="translate(154.625,69.6875)"/>
<path d="M0 0 C0.495 0.99 0.495 0.99 1 2 C-0.01835311 4.59634173 -1.10299852 7.05565925 -2.3125 9.5625 C-2.67641846 10.32554443 -3.04033691 11.08858887 -3.4152832 11.87475586 C-6.29510747 17.79693093 -9.51074339 23.4575586 -12.9128418 29.09179688 C-18.97964828 39.18421965 -24.44505917 49.62020376 -30 60 C-30.99 60 -31.98 60 -33 60 C-40.17540687 46.99457505 -40.17540687 46.99457505 -39 41 C-36.4089444 35.74472958 -33.56014396 32.31996897 -28.9375 28.6875 C-27.77603918 27.73857369 -26.61590616 26.78802013 -25.45703125 25.8359375 C-24.87775879 25.36381836 -24.29848633 24.89169922 -23.70166016 24.40527344 C-14.82324685 17.07325809 -7.0816474 9.06450868 0 0 Z " fill="#F89A3E" transform="translate(186,106)"/>
<path d="M0 0 C0 6.6 0 13.2 0 20 C-2 18 -4 16 -6 14 C-6.25652344 14.59425781 -6.51304687 15.18851563 -6.77734375 15.80078125 C-16.06093948 35.89960972 -34.60042076 49.13869478 -54.88598633 56.75683594 C-55.62486084 57.02270508 -56.36373535 57.28857422 -57.125 57.5625 C-57.82326904 57.81418945 -58.52153809 58.06587891 -59.2409668 58.32519531 C-63.27905227 59.68409588 -66.74692013 60.25836467 -71 60 C-70.67 58.35 -70.34 56.7 -70 55 C-69.33057373 54.78907715 -68.66114746 54.5781543 -67.97143555 54.36083984 C-64.87295789 53.37720462 -61.78034017 52.37621371 -58.6875 51.375 C-57.63498047 51.04371094 -56.58246094 50.71242187 -55.49804688 50.37109375 C-45.35472498 47.0628103 -36.36268189 42.34147197 -27.75 36.0625 C-27.15719238 35.63356445 -26.56438477 35.20462891 -25.95361328 34.76269531 C-17.99951513 28.90823386 -11.36745145 22.54111244 -8 13 C-10.31 13.66 -12.62 14.32 -15 15 C-2.5 0 -2.5 0 0 0 Z " fill="#EB8B40" transform="translate(204,72)"/>
<path d="M0 0 C2.375 0.3125 2.375 0.3125 4.1875 2.1875 C5.375 4.3125 5.375 4.3125 5.375 6.3125 C1.415 6.3125 -2.545 6.3125 -6.625 6.3125 C-6.625 6.9725 -6.625 7.6325 -6.625 8.3125 C-2.335 8.3125 1.955 8.3125 6.375 8.3125 C6.705 10.9525 7.035 13.5925 7.375 16.3125 C6.21742188 16.28929688 5.05984375 16.26609375 3.8671875 16.2421875 C2.32813149 16.22341852 0.78906845 16.20521954 -0.75 16.1875 C-1.89082031 16.16236328 -1.89082031 16.16236328 -3.0546875 16.13671875 C-7.69049657 16.09675488 -11.23397458 16.65772187 -15.625 18.3125 C-16.615 18.3125 -17.605 18.3125 -18.625 18.3125 C-18 15 -18 15 -16.625 11.3125 C-13.5 9.375 -13.5 9.375 -10.625 8.3125 C-11.615 7.6525 -12.605 6.9925 -13.625 6.3125 C-8.92890537 2.05325138 -6.28276246 0.74794791 0 0 Z " fill="#4169A9" transform="translate(154.625,69.6875)"/>
<path d="M0 0 C1.65 0 3.3 0 5 0 C5.66 1.32 6.32 2.64 7 4 C7.33 2.68 7.66 1.36 8 0 C9.65 0 11.3 0 13 0 C13 5.94 13 11.88 13 18 C11.02 18 9.04 18 7 18 C6.67 17.01 6.34 16.02 6 15 C5.67 15.99 5.34 16.98 5 18 C3.35 18 1.7 18 0 18 C0 12.06 0 6.12 0 0 Z " fill="#22519D" transform="translate(107,178)"/>
<path d="M0 0 C3.5 0.4375 3.5 0.4375 5.19921875 1.5546875 C7.12986992 4.34920361 6.86123214 6.64497955 6.8125 10 C6.80863281 11.15628906 6.80476563 12.31257812 6.80078125 13.50390625 C6.5 16.4375 6.5 16.4375 4.5 18.4375 C-1.18348624 18.9787844 -1.18348624 18.9787844 -3.5 18.4375 C-5.62757286 16.33394037 -6.41464868 14.95964925 -6.8984375 12 C-6.89070313 11.154375 -6.88296875 10.30875 -6.875 9.4375 C-6.88273437 8.591875 -6.89046875 7.74625 -6.8984375 6.875 C-6.14375336 2.25810877 -4.62230252 0.57778781 0 0 Z " fill="#24539E" transform="translate(96.5,177.5625)"/>
<path d="M0 0 C1.588125 -0.061875 3.17625 -0.12375 4.8125 -0.1875 C6.15248047 -0.23970703 6.15248047 -0.23970703 7.51953125 -0.29296875 C10 0 10 0 11.80859375 1.296875 C13.75759349 4.08298611 13.23122545 6.7050374 13 10 C12.814375 10.721875 12.62875 11.44375 12.4375 12.1875 C11.89978278 14.41518561 12.30718474 15.84457475 13 18 C11.35 18 9.7 18 8 18 C7.67 16.35 7.34 14.7 7 13 C6.34 13 5.68 13 5 13 C5 14.65 5 16.3 5 18 C3.35 18 1.7 18 0 18 C0 12.06 0 6.12 0 0 Z " fill="#3560A5" transform="translate(148,178)"/>
<path d="M0 0 C9 0 9 0 11.5625 1.0625 C13.75785313 4.02145422 13.31442312 6.41557647 13 10 C12.814375 10.721875 12.62875 11.44375 12.4375 12.1875 C11.89978278 14.41518561 12.30718474 15.84457475 13 18 C11.35 18 9.7 18 8 18 C7.67 16.35 7.34 14.7 7 13 C6.34 13 5.68 13 5 13 C5 14.65 5 16.3 5 18 C3.35 18 1.7 18 0 18 C0 12.06 0 6.12 0 0 Z " fill="#2F5BA3" transform="translate(252,178)"/>
<path d="M0 0 C3.61941735 1.50239966 6.7321794 2.82145293 10 5 C10.639375 5.268125 11.27875 5.53625 11.9375 5.8125 C14.69975748 7.40289067 16.18566856 9.40809795 18 12 C18 12.66 18 13.32 18 14 C17.34 14 16.68 14 16 14 C16 14.66 16 15.32 16 16 C16.66 16 17.32 16 18 16 C18 16.66 18 17.32 18 18 C16.35 18 14.7 18 13 18 C12.67 17.01 12.34 16.02 12 15 C11.67 15.99 11.34 16.98 11 18 C8.03 18 5.06 18 2 18 C2.04125 16.659375 2.0825 15.31875 2.125 13.9375 C2.13880154 9.56241098 1.3519711 6.1404115 0 2 C0 1.34 0 0.68 0 0 Z " fill="#4A70AD" transform="translate(163,78)"/>
<path d="M0 0 C0.33 0 0.66 0 1 0 C1.08636719 0.80824219 1.17273438 1.61648437 1.26171875 2.44921875 C2.1078206 9.20798694 2.1078206 9.20798694 5.25 15.125 C10.17759506 18.4847239 14.99644014 19.26508817 20.875 19.625 C22.02742188 19.69976562 23.17984375 19.77453125 24.3671875 19.8515625 C25.67042969 19.92503906 25.67042969 19.92503906 27 20 C26.625 22.4375 26.625 22.4375 26 25 C21.37396994 27.31301503 14.94333154 25.7904999 10 25 C4.68404074 22.93756768 1.47074293 20.18487248 -1 15 C-1.328125 11.73828125 -1.328125 11.73828125 -1.25 8.3125 C-1.23453125 7.17425781 -1.2190625 6.03601563 -1.203125 4.86328125 C-1 2 -1 2 0 0 Z " fill="#3B5D95" transform="translate(107,107)"/>
<path d="M0 0 C1.65 0 3.3 0 5 0 C5.67548578 2.05962852 6.34004312 4.12284322 7 6.1875 C7.37125 7.33605469 7.7425 8.48460937 8.125 9.66796875 C8.90630553 12.64320812 9.18363306 14.95283896 9 18 C7.68 18 6.36 18 5 18 C5 17.34 5 16.68 5 16 C3.35 16 1.7 16 0 16 C0 16.66 0 17.32 0 18 C-1.65 18 -3.3 18 -5 18 C-4.0122936 11.57409836 -2.86390108 5.85797948 0 0 Z " fill="#2957A0" transform="translate(169,178)"/>
<path d="M0 0 C2.375 1.3125 2.375 1.3125 4 3 C4 3.99 4 4.98 4 6 C2.35 6 0.7 6 -1 6 C-1 5.34 -1 4.68 -1 4 C-1.99 4 -2.98 4 -4 4 C-2.49650603 7.00698793 0.0418948 7.58257459 3 9 C3.33 9.33 3.66 9.66 4 10 C3.6875 13.5 3.6875 13.5 3 17 C0.01405576 18.49297212 -2.70853624 18.11755228 -6 18 C-6.66 17.67 -7.32 17.34 -8 17 C-8 15.68 -8 14.36 -8 13 C-5.69 13.33 -3.38 13.66 -1 14 C-2.39375072 11.21249856 -4.16244861 11.10733713 -7 10 C-9 8 -9 8 -9.3125 5.5625 C-9 3 -9 3 -7.875 1.1875 C-5.11646047 -0.55957504 -3.20161236 -0.39203417 0 0 Z " fill="#24539E" transform="translate(277,178)"/>
<path d="M0 0 C3.63 0 7.26 0 11 0 C11 1.65 11 3.3 11 5 C9.02 5 7.04 5 5 5 C5 5.66 5 6.32 5 7 C6.65 7 8.3 7 10 7 C10 8.32 10 9.64 10 11 C8.35 11 6.7 11 5 11 C5 11.99 5 12.98 5 14 C6.98 14 8.96 14 11 14 C11 15.32 11 16.64 11 18 C7.37 18 3.74 18 0 18 C0 12.06 0 6.12 0 0 Z " fill="#27559F" transform="translate(238,178)"/>
<path d="M0 0 C3.63 0 7.26 0 11 0 C11 1.65 11 3.3 11 5 C9.02 5 7.04 5 5 5 C5 5.66 5 6.32 5 7 C6.65 7 8.3 7 10 7 C10 8.32 10 9.64 10 11 C8.35 11 6.7 11 5 11 C5 11.99 5 12.98 5 14 C6.98 14 8.96 14 11 14 C11 15.32 11 16.64 11 18 C7.37 18 3.74 18 0 18 C0 12.06 0 6.12 0 0 Z " fill="#2957A0" transform="translate(197,178)"/>
<path d="M0 0 C3.63 0 7.26 0 11 0 C11 1.65 11 3.3 11 5 C9.02 5 7.04 5 5 5 C5 5.66 5 6.32 5 7 C6.65 7 8.3 7 10 7 C10 8.32 10 9.64 10 11 C8.35 11 6.7 11 5 11 C5 11.99 5 12.98 5 14 C6.98 14 8.96 14 11 14 C11 15.32 11 16.64 11 18 C7.37 18 3.74 18 0 18 C0 12.06 0 6.12 0 0 Z " fill="#2856A0" transform="translate(45,178)"/>
<path d="M0 0 C1.65 0 3.3 0 5 0 C5.99 3.3 6.98 6.6 8 10 C8.66 6.7 9.32 3.4 10 0 C11.65 0 13.3 0 15 0 C14.41632611 6.30367803 12.95928381 11.98660063 11 18 C8.69 18 6.38 18 4 18 C3.32873871 15.5636811 2.66283646 13.12611117 2 10.6875 C1.71382812 9.65206055 1.71382812 9.65206055 1.421875 8.59570312 C0.62283816 5.64212051 0 3.07440781 0 0 Z " fill="#26549F" transform="translate(179,178)"/>
<path d="M0 0 C5.28 0 10.56 0 16 0 C16 2.31 16 4.62 16 7 C14.02 7 12.04 7 10 7 C11.4540625 7.433125 11.4540625 7.433125 12.9375 7.875 C16 9 16 9 17 11 C17.039992 12.99960012 17.04346799 15.00047242 17 17 C12.25 16.125 12.25 16.125 10 15 C8.94647157 12.69034152 7.94280904 10.3570226 7 8 C6.01 9.485 6.01 9.485 5 11 C3.62437146 9.71034824 2.29233607 8.37310707 1 7 C1 6.34 1 5.68 1 5 C1.99 5 2.98 5 4 5 C4 4.34 4 3.68 4 3 C2.68 2.34 1.36 1.68 0 1 C0 0.67 0 0.34 0 0 Z " fill="#9DB0CE" transform="translate(128,98)"/>
<path d="M0 0 C0.99 0.66 1.98 1.32 3 2 C3.1875 5.125 3.1875 5.125 3 8 C1.35 8 -0.3 8 -2 8 C-2 6.68 -2 5.36 -2 4 C-2.99 4.495 -2.99 4.495 -4 5 C-4.46651207 7.12576782 -4.46651207 7.12576782 -4.625 9.5625 C-4.69976562 10.38878906 -4.77453125 11.21507812 -4.8515625 12.06640625 C-4.90054688 12.70449219 -4.94953125 13.34257812 -5 14 C-4.01 13.67 -3.02 13.34 -2 13 C-1.67 12.34 -1.34 11.68 -1 11 C0.32 11 1.64 11 3 11 C3.125 13.375 3.125 13.375 3 16 C1 18 1 18 -0.875 18.265625 C-1.57625 18.26046875 -2.2775 18.2553125 -3 18.25 C-4.051875 18.25773437 -4.051875 18.25773437 -5.125 18.265625 C-7 18 -7 18 -9 16 C-9.30078125 12.8125 -9.30078125 12.8125 -9.3125 9 C-9.32925781 7.741875 -9.34601562 6.48375 -9.36328125 5.1875 C-9.24339844 4.135625 -9.12351562 3.08375 -9 2 C-5.53001271 -0.31332486 -4.07490752 -0.33957563 0 0 Z " fill="#20509D" transform="translate(38,178)"/>
<path d="M0 0 C1.98 0 3.96 0 6 0 C6.66 1.65 7.32 3.3 8 5 C8.5878125 3.7625 8.5878125 3.7625 9.1875 2.5 C9.785625 1.675 10.38375 0.85 11 0 C13.6875 -0.3125 13.6875 -0.3125 16 0 C15.52449439 1.48034764 15.04448784 2.95925021 14.5625 4.4375 C14.29566406 5.26121094 14.02882813 6.08492187 13.75390625 6.93359375 C13 9 13 9 12 10 C11.76924918 11.34747084 11.58846937 12.70377565 11.4375 14.0625 C11.293125 15.361875 11.14875 16.66125 11 18 C9.35 18 7.7 18 6 18 C5.85304688 17.18208984 5.85304688 17.18208984 5.703125 16.34765625 C4.54000257 10.48190953 2.61460097 5.36881656 0 0 Z " fill="#24539E" transform="translate(58,178)"/>
<path d="M0 0 C0.66 0 1.32 0 2 0 C2.33 1.32 2.66 2.64 3 4 C4.423125 3.690625 4.423125 3.690625 5.875 3.375 C6.90625 3.25125 7.9375 3.1275 9 3 C11 5 11 5 11 12 C5.72 12 0.44 12 -5 12 C-5 5.21965318 -5 5.21965318 -2.625 2.625 C-1.75875 1.75875 -0.8925 0.8925 0 0 Z " fill="#4C72AE" transform="translate(133,84)"/>
<path d="M0 0 C1.32056025 2.60064355 2.56207672 5.21662061 3.7265625 7.890625 C4.0359375 8.59960938 4.3453125 9.30859375 4.6640625 10.0390625 C4.98117188 10.76867187 5.29828125 11.49828125 5.625 12.25 C5.94984375 12.99507812 6.2746875 13.74015625 6.609375 14.5078125 C7.40720401 16.33812611 8.20373102 18.16900716 9 20 C4.98156695 19.75099453 1.20796163 19.47139966 -2.5625 18 C-4.99226086 14.61946314 -4.58677005 11.0050467 -4 7 C-1.90909091 1.90909091 -1.90909091 1.90909091 0 0 Z " fill="#EFF1EF" transform="translate(120,102)"/>
<path d="M0 0 C2.64590014 -0.02684679 5.29153096 -0.04676357 7.9375 -0.0625 C8.69224609 -0.07087891 9.44699219 -0.07925781 10.22460938 -0.08789062 C12.14994313 -0.09652441 14.07535581 -0.05224333 16 0 C17 1 17 1 17 8 C11.39 8 5.78 8 0 8 C0 5.36 0 2.72 0 0 Z " fill="#E3E7EB" transform="translate(146,88)"/>
<path d="M0 0 C4.62 0 9.24 0 14 0 C14 1.32 14 2.64 14 4 C12.35 4 10.7 4 9 4 C9 8.62 9 13.24 9 18 C7.35 18 5.7 18 4 18 C4 13.71 4 9.42 4 5 C2.68 5 1.36 5 0 5 C0 3.35 0 1.7 0 0 Z " fill="#2C59A1" transform="translate(132,178)"/>
<path d="M0 0 C5.61 0 11.22 0 17 0 C17 2.31 17 4.62 17 7 C11.39 7 5.78 7 0 7 C0 4.69 0 2.38 0 0 Z " fill="#F4F4F1" transform="translate(146,98)"/>
<path d="M0 0 C0 6.6 0 13.2 0 20 C-4 16 -4 16 -5 14 C-8.3 14.33 -11.6 14.66 -15 15 C-2.5 0 -2.5 0 0 0 Z " fill="#28559F" transform="translate(204,72)"/>
<path d="M0 0 C1.65 0 3.3 0 5 0 C5 4.62 5 9.24 5 14 C6.98 14 8.96 14 11 14 C11 15.32 11 16.64 11 18 C7.37 18 3.74 18 0 18 C0 12.06 0 6.12 0 0 Z " fill="#2C59A1" transform="translate(77,178)"/>
<path d="M0 0 C4.29 0 8.58 0 13 0 C13.33 2.64 13.66 5.28 14 8 C9.05 8 4.1 8 -1 8 C-0.67 5.36 -0.34 2.72 0 0 Z " fill="#F5F6F2" transform="translate(148,78)"/>
<path d="M0 0 C1.65 0 3.3 0 5 0 C5 4.62 5 9.24 5 14 C6.65 14 8.3 14 10 14 C10 15.32 10 16.64 10 18 C6.7 18 3.4 18 0 18 C0 12.06 0 6.12 0 0 Z " fill="#25549F" transform="translate(225,178)"/>
<path d="M0 0 C4.95 0 9.9 0 15 0 C14 5 14 5 11.375 6.8125 C7.69877506 8.10598655 4.86828756 8.23209725 1 8 C0.67 5.36 0.34 2.72 0 0 Z " fill="#F7F7F3" transform="translate(147,108)"/>
<path d="M0 0 C1.32 0 2.64 0 4 0 C4 4.62 4 9.24 4 14 C5.98 14 7.96 14 10 14 C10 15.32 10 16.64 10 18 C6.7 18 3.4 18 0 18 C0 12.06 0 6.12 0 0 Z " fill="#1A4B9A" transform="translate(212,178)"/>
<path d="M0 0 C0.33 0 0.66 0 1 0 C1 2.31 1 4.62 1 7 C5.95 7 10.9 7 16 7 C16.33 7.99 16.66 8.98 17 10 C12.05 10 7.1 10 2 10 C1.67 12.64 1.34 15.28 1 18 C0.67 18 0.34 18 0 18 C-0.33 15.03 -0.66 12.06 -1 9 C-1.94875 8.87625 -2.8975 8.7525 -3.875 8.625 C-7 8 -7 8 -9 6 C-6.36 6.33 -3.72 6.66 -1 7 C-0.67 4.69 -0.34 2.38 0 0 Z " fill="#3C65A8" transform="translate(145,98)"/>
<path d="M0 0 C1.32 0 2.64 0 4 0 C5.50662097 3.01324195 5.17770373 5.68286377 5 9 C4.34 9.66 3.68 10.32 3 11 C0.875 10.625 0.875 10.625 -1 10 C-1.02689216 8.52093108 -1.04634621 7.04172517 -1.0625 5.5625 C-1.07410156 4.73878906 -1.08570313 3.91507813 -1.09765625 3.06640625 C-1 1 -1 1 0 0 Z " fill="#F6A980" transform="translate(192,208)"/>
<path d="M0 0 C6.49116162 2.3270202 6.49116162 2.3270202 8.9375 5.5625 C10 8 10 8 10 10 C7.36 9.67 4.72 9.34 2 9 C0 2.25 0 2.25 0 0 Z " fill="#E4E8EB" transform="translate(163,78)"/>
<path d="M0 0 C3.63 0 7.26 0 11 0 C10.67 1.65 10.34 3.3 10 5 C7.01787087 6.49106457 4.28390342 6.11941467 1 6 C0.67 5.67 0.34 5.34 0 5 C0 3.35 0 1.7 0 0 Z " fill="#888078" transform="translate(123,127)"/>
<path d="M0 0 C0 2.31 0 4.62 0 7 C-2.97 7 -5.94 7 -9 7 C-9 5.35 -9 3.7 -9 2 C-3.375 0 -3.375 0 0 0 Z " fill="#DEE4E9" transform="translate(144,89)"/>
<path d="M0 0 C1.65 0 3.3 0 5 0 C6 1 6 1 6.09765625 3.28515625 C6.08605469 4.20167969 6.07445313 5.11820313 6.0625 6.0625 C6.05347656 6.98160156 6.04445313 7.90070313 6.03515625 8.84765625 C6.02355469 9.55792969 6.01195313 10.26820313 6 11 C5.34 11 4.68 11 4 11 C4 9.35 4 7.7 4 6 C3.34 6 2.68 6 2 6 C2 7.65 2 9.3 2 11 C1.34 11 0.68 11 0 11 C0 7.37 0 3.74 0 0 Z " fill="#F59868" transform="translate(86,208)"/>
<path d="M0 0 C6.15234375 0.5859375 6.15234375 0.5859375 8 1 C9.35439668 3.70879335 9.06501451 6.00933268 9 9 C4.25 8.125 4.25 8.125 2 7 C1.26924352 4.6859378 0.59861742 2.35171131 0 0 Z " fill="#EAEDEE" transform="translate(136,106)"/>
<path d="M0 0 C4.455 0.99 4.455 0.99 9 2 C9 3.65 9 5.3 9 7 C6.03 7 3.06 7 0 7 C0 4.69 0 2.38 0 0 Z " fill="#E0E5E9" transform="translate(165,89)"/>
<path d="M0 0 C-0.33 2.64 -0.66 5.28 -1 8 C-3.64 8.33 -6.28 8.66 -9 9 C-7.53218884 2.39484979 -7.53218884 2.39484979 -5.0625 0.5625 C-3 0 -3 0 0 0 Z " fill="#ECEEEE" transform="translate(145,79)"/>
<path d="M0 0 C2.97 0 5.94 0 9 0 C9 1.65 9 3.3 9 5 C6.03 5.66 3.06 6.32 0 7 C0 4.69 0 2.38 0 0 Z " fill="#E6EAEC" transform="translate(165,98)"/>
<path d="M0 0 C3.91402949 1.26941497 5.79072873 2.51167694 8 6 C7.401875 6.0825 6.80375 6.165 6.1875 6.25 C3.4033704 7.20455872 2.56688858 8.57132271 1 11 C1 9.68 1 8.36 1 7 C-3.29 7 -7.58 7 -12 7 C-12 6.67 -12 6.34 -12 6 C-6.06 5.505 -6.06 5.505 0 5 C0 3.35 0 1.7 0 0 Z " fill="#4B71AE" transform="translate(160,71)"/>
<path d="M0 0 C5 1 5 1 6 2 C6.07179964 3.51928038 6.08392007 5.04167482 6.0625 6.5625 C6.05347656 7.38878906 6.04445312 8.21507812 6.03515625 9.06640625 C6.01775391 10.02353516 6.01775391 10.02353516 6 11 C5.34 11 4.68 11 4 11 C4 9.35 4 7.7 4 6 C3.01 6 2.02 6 1 6 C1 7.65 1 9.3 1 11 C0.67 11 0.34 11 0 11 C0 7.37 0 3.74 0 0 Z " fill="#F59767" transform="translate(217,208)"/>
<path d="M0 0 C1.65 0.33 3.3 0.66 5 1 C4.814375 1.556875 4.62875 2.11375 4.4375 2.6875 C3.92448835 5.399133 4.3359276 7.34371039 5 10 C3.68 10.33 2.36 10.66 1 11 C0.34 9.68 -0.32 8.36 -1 7 C-0.34 7 0.32 7 1 7 C1 7.66 1 8.32 1 9 C1.66 9 2.32 9 3 9 C2.319375 8.2575 1.63875 7.515 0.9375 6.75 C-1 4 -1 4 -0.75 1.6875 C-0.5025 1.130625 -0.255 0.57375 0 0 Z " fill="#F59868" transform="translate(230,208)"/>
<path d="M0 0 C0.99 0 1.98 0 3 0 C3.66 3.63 4.32 7.26 5 11 C3.02 11 1.04 11 -1 11 C-0.67 7.37 -0.34 3.74 0 0 Z " fill="#F69F72" transform="translate(100,208)"/>
<path d="M0 0 C-1.5277867 3.43752007 -3.50181056 6.18953688 -6 9 C-6.66 9 -7.32 9 -8 9 C-8.33 6.69 -8.66 4.38 -9 2 C-2.25 0 -2.25 0 0 0 Z " fill="#E3E7EB" transform="translate(196,85)"/>
<path d="M0 0 C1.65 0 3.3 0 5 0 C5 0.66 5 1.32 5 2 C4.01 2 3.02 2 2 2 C2 2.66 2 3.32 2 4 C2.99 4 3.98 4 5 4 C5 4.66 5 5.32 5 6 C4.01 6 3.02 6 2 6 C2 6.99 2 7.98 2 9 C2.99 9 3.98 9 5 9 C5 9.66 5 10.32 5 11 C3.35 11 1.7 11 0 11 C0 7.37 0 3.74 0 0 Z " fill="#F58D57" transform="translate(123,208)"/>
<path d="M0 0 C1.66666667 0 3.33333333 0 5 0 C4.67 3.63 4.34 7.26 4 11 C3.01 11 2.02 11 1 11 C-0.17571451 7.32589215 -0.07366746 3.83070817 0 0 Z " fill="#F5915E" transform="translate(111,208)"/>
<path d="M0 0 C0 1.32 0 2.64 0 4 C0.99 4.33 1.98 4.66 3 5 C-0.3 5.33 -3.6 5.66 -7 6 C-6.625 3.5625 -6.625 3.5625 -6 1 C-4 0 -4 0 0 0 Z " fill="#AB8C60" transform="translate(140,126)"/>
<path d="M0 0 C0.99 0 1.98 0 3 0 C3 0.66 3 1.32 3 2 C2.01 2 1.02 2 0 2 C0 2.66 0 3.32 0 4 C0.66 4 1.32 4 2 4 C2 4.66 2 5.32 2 6 C1.34 6 0.68 6 0 6 C0 6.99 0 7.98 0 9 C0.99 9 1.98 9 3 9 C3 7.35 3 5.7 3 4 C3.99 4 4.98 4 6 4 C5.25 6.9375 5.25 6.9375 4 10 C1.9375 10.9375 1.9375 10.9375 0 11 C-1 10 -1 10 -1.1328125 7.96875 C-1.13023437 7.1540625 -1.12765625 6.339375 -1.125 5.5 C-1.12757813 4.6853125 -1.13015625 3.870625 -1.1328125 3.03125 C-1 1 -1 1 0 0 Z " fill="#F4874F" transform="translate(157,208)"/>
<path d="M0 0 C1.65 0 3.3 0 5 0 C5.66 1.65 6.32 3.3 7 5 C4.03 5 1.06 5 -2 5 C-1.34 3.35 -0.68 1.7 0 0 Z " fill="#ECEFEE" transform="translate(152,70)"/>
<path d="M0 0 C0.66 0.33 1.32 0.66 2 1 C-0.96557071 7.52163117 -4.0998248 12.75795211 -9 18 C-9.66 17.34 -10.32 16.68 -11 16 C-10.45730469 15.43152344 -9.91460937 14.86304687 -9.35546875 14.27734375 C-5.13058896 9.71751853 -2.00935682 5.90248565 0 0 Z " fill="#D46346" transform="translate(196,85)"/>
<path d="M0 0 C2.31 0 4.62 0 7 0 C7 1.65 7 3.3 7 5 C5.02 5 3.04 5 1 5 C0.67 3.35 0.34 1.7 0 0 Z " fill="#F4F5F2" transform="translate(136,99)"/>
<path d="M0 0 C0.66 0 1.32 0 2 0 C2.33 2.31 2.66 4.62 3 7 C2.34 7 1.68 7 1 7 C0.67 7.66 0.34 8.32 0 9 C0 8.34 0 7.68 0 7 C-4.95 7 -9.9 7 -15 7 C-15 6.67 -15 6.34 -15 6 C-10.05 6 -5.1 6 0 6 C0 4.02 0 2.04 0 0 Z " fill="#2956A0" transform="translate(162,80)"/>
<path d="M0 0 C0.66 0 1.32 0 2 0 C2 3.3 2 6.6 2 10 C1.01 10 0.02 10 -1 10 C-1.02689216 8.52093108 -1.04634621 7.04172517 -1.0625 5.5625 C-1.07410156 4.73878906 -1.08570312 3.91507813 -1.09765625 3.06640625 C-1 1 -1 1 0 0 Z " fill="#E1E6EA" transform="translate(96,182)"/>
<path d="M0 0 C0.33 0.66 0.66 1.32 1 2 C-1.17480035 7.49423248 -1.17480035 7.49423248 -3.9375 9.1875 C-4.618125 9.455625 -5.29875 9.72375 -6 10 C-7.35113205 10.97581759 -8.68946944 11.97029741 -10 13 C-8.48446596 9.52224821 -6.4226544 7.0442016 -3.875 4.25 C-3.15054688 3.45078125 -2.42609375 2.6515625 -1.6796875 1.828125 C-0.84824219 0.92320313 -0.84824219 0.92320313 0 0 Z " fill="#F26F42" transform="translate(186,106)"/>
<path d="M0 0 C0.66 0 1.32 0 2 0 C2 2.97 2 5.94 2 9 C2.99 9 3.98 9 5 9 C5 9.66 5 10.32 5 11 C3.35 11 1.7 11 0 11 C0 7.37 0 3.74 0 0 Z " fill="#F5915D" transform="translate(135,208)"/>
<path d="M0 0 C2.31 0 4.62 0 7 0 C6.01 0.495 6.01 0.495 5 1 C5 2.32 5 3.64 5 5 C3.35 5 1.7 5 0 5 C0 3.35 0 1.7 0 0 Z " fill="#646D7D" transform="translate(123,127)"/>
<path d="M0 0 C-2.52956528 3.0916909 -5.22454612 3.90931332 -9 5 C-9 3.68 -9 2.36 -9 1 C-5.92677456 0.08941469 -3.19902639 -0.08886184 0 0 Z " fill="#D6DEE6" transform="translate(173,106)"/>
<path d="M0 0 C-0.94875 0.391875 -1.8975 0.78375 -2.875 1.1875 C-6.34127338 3.19793856 -6.9802693 4.22699642 -8 8 C-8.66 8 -9.32 8 -10 8 C-9.5047783 4.33535945 -8.9791794 2.29167646 -6 0 C-3 -1 -3 -1 0 0 Z " fill="#1D4D9B" transform="translate(145,78)"/>
<path d="M0 0 C0 3 0 3 -1.875 5.1875 C-4 7 -4 7 -6 7 C-6 7.66 -6 8.32 -6 9 C-6.66 8.67 -7.32 8.34 -8 8 C-7.04578192 6.85073734 -6.08647955 5.70569459 -5.125 4.5625 C-4.59132812 3.92441406 -4.05765625 3.28632812 -3.5078125 2.62890625 C-2 1 -2 1 0 0 Z " fill="#C0CCDD" transform="translate(139,74)"/>
<path d="M0 0 C3.91402949 1.26941497 5.79072873 2.51167694 8 6 C5.125 5.8125 5.125 5.8125 2 5 C0.625 2.4375 0.625 2.4375 0 0 Z " fill="#C5D0DE" transform="translate(160,71)"/>
<path d="M0 0 C3.81684226 1.55500981 6.19195732 4.03595495 9 7 C8.67 7.66 8.34 8.32 8 9 C4.36905358 6.35039045 2.10148204 3.98175544 0 0 Z " fill="#C5D0DE" transform="translate(131,111)"/>
<path d="M0 0 C0.66 0 1.32 0 2 0 C2 1.32 2 2.64 2 4 C2.99 4.33 3.98 4.66 5 5 C3.02 5.33 1.04 5.66 -1 6 C-1.042721 4.33388095 -1.04063832 2.66617115 -1 1 C-0.67 0.67 -0.34 0.34 0 0 Z " fill="#CFA15B" transform="translate(138,126)"/>
<path d="M0 0 C0.66 0.33 1.32 0.66 2 1 C1.375 2.9375 1.375 2.9375 0 5 C-3.125 5.75 -3.125 5.75 -6 6 C-4 4 -2 2 0 0 Z " fill="#CFD8E3" transform="translate(147,71)"/>
<path d="M0 0 C1.65 0 3.3 0 5 0 C5 0.66 5 1.32 5 2 C4.34 2 3.68 2 3 2 C3 4.64 3 7.28 3 10 C2.67 10 2.34 10 2 10 C2 7.36 2 4.72 2 2 C1.34 2 0.68 2 0 2 C0 1.34 0 0.68 0 0 Z " fill="#F47C3F" transform="translate(179,208)"/>
<path d="M0 0 C1.65 0 3.3 0 5 0 C5 0.66 5 1.32 5 2 C4.34 2 3.68 2 3 2 C3 4.64 3 7.28 3 10 C2.67 10 2.34 10 2 10 C2 7.36 2 4.72 2 2 C1.34 2 0.68 2 0 2 C0 1.34 0 0.68 0 0 Z " fill="#F47B3E" transform="translate(74,208)"/>
<path d="M0 0 C2.99324263 1.0975223 3.84610901 1.67682892 5.25 4.625 C5.4975 5.40875 5.745 6.1925 6 7 C3.5625 6.3125 3.5625 6.3125 1 5 C0.1875 2.375 0.1875 2.375 0 0 Z " fill="#D9DFE6" transform="translate(174,84)"/>
<path d="M0 0 C0.66 0.33 1.32 0.66 2 1 C-0.625 5.875 -0.625 5.875 -4 7 C-2.92598892 4.08482708 -2.22189824 2.22189824 0 0 Z " fill="#D8DFE6" transform="translate(133,84)"/>
<path d="M0 0 C3.57104439 1.87949705 5.54744301 3.17053157 7 7 C4.13302508 5.71480435 2.02392288 4.42870746 0 2 C0 1.34 0 0.68 0 0 Z " fill="#C9D3E0" transform="translate(169,74)"/>
<path d="M0 0 C0.99 0 1.98 0 3 0 C3.36923077 4.55384615 3.36923077 4.55384615 1.5 6.8125 C1.005 7.204375 0.51 7.59625 0 8 C0 5.36 0 2.72 0 0 Z " fill="#F48146" transform="translate(100,208)"/>
</svg>
