<?xml version="1.0" encoding="iso-8859-1"?>
<!-- Uploaded to: SVG Repo, www.svgrepo.com, Generator: SVG Repo Mixer Tools -->
<svg height="800px" width="800px" version="1.1" id="Layer_1" xmlns="http://www.w3.org/2000/svg" xmlns:xlink="http://www.w3.org/1999/xlink" 
	 viewBox="0 0 512 512" xml:space="preserve">
<path style="fill:#FDC794;" d="M360.127,329.763V225.627c0-16.488-13.885-34.712-30.373-34.712s-30.373,17.356-30.373,33.844
	v-42.522c0-16.488-13.885-34.712-30.373-34.712s-30.373,18.224-30.373,34.712v60.746V43.39c0-16.488-13.885-34.712-30.373-34.712
	S177.89,26.902,177.89,43.39v26.034c0-16.488-13.885-34.712-30.373-34.712s-30.373,18.224-30.373,34.712v216.949
	c0-24.298-20.827-72.895-43.39-95.458l0,0c-19.092-19.092-72.895-6.075-43.39,34.712c20.827,28.637,34.712,89.383,34.712,121.492
	c0,77.234,60.746,104.136,60.746,104.136V512h208.271v-60.746l0,0C361.862,413.939,360.127,415.675,360.127,329.763"/>
<path style="fill:#71C386;" d="M455.584,69.424c-2.603,0-4.339-0.868-6.075-2.603s-2.603-3.471-2.603-6.075
	c0-2.603,0.868-4.339,2.603-6.075l11.281-11.281h-79.837l11.281,11.281c3.471,3.471,3.471,8.678,0,12.149
	c-3.471,3.471-8.678,3.471-12.149,0l-26.034-26.034c0,0,0,0-0.868-0.868c-0.868-0.868-1.736-2.603-1.736-4.339l0,0
	c0-0.868,0-0.868,0-1.736l0,0l0,0c0-1.736,0.868-4.339,2.603-5.207l0,0l0,0l0,0l0,0l0,0l0,0l0,0l26.034-26.034
	c3.471-3.471,8.678-3.471,12.149,0c1.736,1.736,2.603,3.471,2.603,6.075s-0.868,4.339-2.603,6.075l-11.281,11.281h79.837
	L449.51,14.753c-3.471-3.471-3.471-8.678,0-12.149c3.471-3.471,8.678-3.471,12.149,0l26.034,26.034c0,0,0,0,0.868,0.868
	c0.868,0.868,1.736,2.603,1.736,4.339l0,0c0,0.868,0,0.868,0,1.736l0,0l0,0c0,1.736-0.868,4.339-2.603,5.207l0,0l0,0l0,0l0,0l0,0
	l0,0l0,0L461.659,66.82C459.923,68.556,458.188,69.424,455.584,69.424"/>
<g>
	<path style="fill:#F9A671;" d="M238.635,442.576h-26.034c-5.207,0-8.678-3.471-8.678-8.678c0-5.207,3.471-8.678,8.678-8.678h26.034
		c5.207,0,8.678,3.471,8.678,8.678C247.313,439.105,243.842,442.576,238.635,442.576"/>
	<path style="fill:#F9A671;" d="M247.313,477.288h-43.39c-5.207,0-8.678-3.471-8.678-8.678s3.471-8.678,8.678-8.678h43.39
		c5.207,0,8.678,3.471,8.678,8.678S252.52,477.288,247.313,477.288"/>
	<path style="fill:#F9A671;" d="M177.89,251.661c-5.207,0-8.678-3.471-8.678-8.678V60.746c0-5.207,3.471-8.678,8.678-8.678
		c5.207,0,8.678,3.471,8.678,8.678v182.237C186.568,248.19,183.096,251.661,177.89,251.661"/>
	<path style="fill:#F9A671;" d="M238.635,260.339c-5.207,0-8.678-3.471-8.678-8.678v-86.78c0-5.207,3.471-8.678,8.678-8.678
		c5.207,0,8.678,3.471,8.678,8.678v86.78C247.313,256.868,243.842,260.339,238.635,260.339"/>
	<path style="fill:#F9A671;" d="M299.381,277.695c-5.207,0-8.678-3.471-8.678-8.678v-52.068c0-5.207,3.471-8.678,8.678-8.678
		c5.207,0,8.678,3.471,8.678,8.678v52.068C308.059,274.224,304.588,277.695,299.381,277.695"/>
</g>
</svg>